<svg width="330" height="69" viewBox="0 0 330 69" fill="none" xmlns="http://www.w3.org/2000/svg">
<g clip-path="url(#clip0_27_52)">
<path d="M72.69 32.59C72.69 52.28 55.41 68.27 35.2 68.27C14.99 68.27 0.459961 53.65 0.459961 35.6C0.459961 15.99 17.66 0 38.03 0C58.4 0 72.68 14.62 72.68 32.59H72.69ZM19.29 35C19.29 44.29 26.77 50.99 35.97 50.99C45.69 50.99 53.85 43.17 53.85 33.28C53.85 23.91 46.28 17.29 37.17 17.29C27.54 17.29 19.29 25.03 19.29 35Z" fill="white"/>
<path d="M92.8099 24.76L111.98 2.06H135.28L111.03 28.89L129.77 66.21H107.41L95.9699 42.65L90.2099 48.84L88.3999 66.21H69.5699L76.3799 2.06H95.2099L92.7999 24.76H92.8099Z" fill="white"/>
<path d="M154.29 24.76L173.46 2.06H196.76L172.51 28.89L191.25 66.21H168.89L157.45 42.65L151.69 48.84L149.88 66.21H131.05L137.84 2.07H156.67L154.26 24.77L154.29 24.76Z" fill="white"/>
<path d="M199 2.06H217.83L211.04 66.2H192.21L199 2.06Z" fill="white"/>
<path d="M219.89 2.06H240.27C257.55 2.06 272.08 11.43 272.08 30.95C272.08 53.82 256.43 66.2 234.33 66.2H213.09L219.88 2.06H219.89ZM233.82 49.09H237.78C245.69 49.09 253.17 43.85 253.17 32.41C253.17 23.55 247.92 19.17 240.36 19.17H236.83L233.82 49.09Z" fill="white"/>
<path d="M307.94 58.12H285.15L281.54 66.2H261.59L292.89 2.06H311.38L329.78 66.2H309.83L307.94 58.12ZM304.67 44.19L300.03 24.67L291.35 44.19H304.68H304.67Z" fill="white"/>
</g>
<defs>
<clipPath id="clip0_27_52">
<rect width="329.32" height="68.27" fill="white" transform="translate(0.459961)"/>
</clipPath>
</defs>
</svg>
